<?xml version="1.0" encoding="utf-8"?>
<!-- Generator: Adobe Illustrator 24.2.0, SVG Export Plug-In . SVG Version: 6.00 Build 0)  -->
<svg version="1.1" id="Layer_1" xmlns="http://www.w3.org/2000/svg" xmlns:xlink="http://www.w3.org/1999/xlink" x="0px" y="0px"
	 viewBox="0 0 60 60" style="enable-background:new 0 0 60 60;" xml:space="preserve">
<style type="text/css">
	.st0{fill:#8834EE;}
</style>
<g>
	<path class="st0" d="M0,23.9c0-0.1,0.1-0.1,0.1-0.2C0.6,21.9,1.8,21,3.7,21c3.5,0,7,0,10.5,0c4.3,0,8.6,0.1,12.8,0
		c2.4,0,3.9,1.8,3.9,3.9c-0.1,3.5,0,7.1,0,10.6c0,2.2-1.4,3.7-3.6,3.7c-7.9,0-15.8,0-23.7,0c-1.7,0-3-1-3.4-2.7
		c0-0.1-0.1-0.2-0.1-0.3C0,32.1,0,28,0,23.9z M27.6,22.7c-8.2,0-16.2,0-24.5,0c0.3,0.2,0.4,0.4,0.6,0.5c2.9,2.3,5.8,4.6,8.6,6.9
		c2,1.6,4,1.6,6,0c2.9-2.3,5.8-4.6,8.7-7C27.2,23.1,27.4,22.9,27.6,22.7z M3.4,37.4c8.1,0,16.1,0,24.1,0c-0.2-0.1-0.2-0.2-0.3-0.2
		c-2.6-1.7-5.3-3.3-7.9-5c-0.3-0.2-0.5-0.1-0.7,0.1c-2.1,1.3-4.2,1.3-6.3,0c-0.4-0.2-0.6-0.2-0.9,0c-2.5,1.6-5,3.2-7.5,4.8
		C3.8,37.1,3.6,37.2,3.4,37.4z M20.4,30.7c2.9,1.9,5.8,3.7,8.7,5.6c0-4.2,0-8.3,0-12.5C26.2,26.1,23.3,28.4,20.4,30.7z M10.5,30.8
		c-2.9-2.3-5.7-4.5-8.6-6.9c0,4.2,0,8.2,0,12.4C4.7,34.4,7.6,32.6,10.5,30.8z"/>
	<path class="st0" d="M51.8,0c0,1.5,0,2.9,0,4.4c-0.5,0-1,0-1.5,0C50.2,4.4,50,4.1,50,4c0-0.5,0-1.1,0-1.6c0-0.2,0-0.4,0-0.7
		c-0.3,0-0.5,0-0.7,0c-8.2,0-16.5,0-24.7,0c-0.8,0-0.8,0-0.8,0.8c0,3.9,0,7.8,0,11.7c0,0.9-0.3,1.2-1.2,1.2c-3.9,0-7.8,0-11.7,0
		c-0.3,0-0.5,0-0.9,0c0,1.5,0,2.9,0,4.4c-0.6,0-1.2,0-1.8,0c0-0.5,0-0.9,0-1.3c0-1.3,0-2.6,0-3.9c0-0.3,0.2-0.7,0.4-0.9
		C13.2,9.1,17.8,4.6,22.4,0c0,0,0-0.1,0.1-0.1C32.3,0,42.1,0,51.8,0z M22,13.6c0-3.5,0-7,0-10.5c-3.6,3.5-7.1,7-10.7,10.5
		C15,13.6,18.5,13.6,22,13.6z"/>
	<path class="st0" d="M46.4,55.5c-7.5,0-13.6-6.1-13.6-13.5c0-7.6,6.1-13.6,13.7-13.6C54,28.4,60,34.5,60,41.9
		C60,49.4,53.9,55.5,46.4,55.5z M46.5,30c-6.5,0-11.9,5.3-11.9,11.8s5.3,11.9,11.8,11.9s11.9-5.3,11.9-11.9
		C58.3,35.4,52.9,30,46.5,30z"/>
	<path class="st0" d="M38.3,20c0-4.8,0-9.6,0-14.4c7.2,0,14.5,0,21.7,0c0,4.8,0,9.6,0,14.4C52.7,20,45.5,20,38.3,20z M58.3,18.2
		c0-0.3,0-0.4,0-0.6c0-3.2,0-6.4,0-9.7c0-0.5-0.2-0.7-0.7-0.7c-5.6,0-11.3,0-16.9,0C40.1,7.3,40,7.4,40,8c0,3.2,0,6.4,0,9.5
		c0,0.6,0.2,0.7,0.8,0.7c5.3,0,10.6,0,15.9,0C57.1,18.2,57.7,18.2,58.3,18.2z"/>
	<path class="st0" d="M50,58.3c0-0.6,0-1.2,0-1.8c0.6,0,1.1,0,1.7,0c0,1.1,0,2.3,0,3.5c-14.5,0-29,0-43.5,0c0-6.6,0-13.2,0-19.8
		c0.5,0,1.1,0,1.7,0c0,6,0,12,0,18.1C23.4,58.3,36.6,58.3,50,58.3z"/>
	<path class="st0" d="M51.7,24.1c0,0.9,0,1.7,0,2.6c0,0.4-0.1,0.6-0.5,0.6c-1.3,0-1.1,0.2-1.1-1.1c0-1.5,0-3,0-4.6
		c0-0.5,0.2-0.6,0.6-0.6c1.2,0,1-0.1,1.1,1.1C51.7,22.7,51.7,23.4,51.7,24.1z"/>
	<path class="st0" d="M50.9,41.9c0,2.5-2,4.5-4.4,4.5S42,44.4,42,42c0-2.5,1.9-4.5,4.4-4.5S50.9,39.5,50.9,41.9z M49.2,41.8
		c0-1.5-1.3-2.8-2.8-2.7c-1.5,0-2.7,1.3-2.7,2.8s1.2,2.7,2.8,2.7C48,44.6,49.2,43.4,49.2,41.8z"/>
	<path class="st0" d="M55.6,41.8c-0.2-5.4-4.6-9-9.1-9.1c0-0.5,0-1.1,0-1.7c1.4,0,2.7,0.2,3.9,0.7c4.2,1.8,6.5,5,6.9,9.6
		c0,0.4-0.1,0.5-0.5,0.5c-0.3,0-0.7,0-1,0C55.7,41.8,55.7,41.8,55.6,41.8z"/>
	<path class="st0" d="M41.9,10.1c4.8,0,9.6,0,14.4,0c0,0.5,0,1,0,1.4c0,0.1-0.3,0.3-0.5,0.3c-2.3,0-4.6,0-6.9,0c-2.1,0-4.3,0-6.4,0
		c-0.2,0-0.4,0-0.7,0C41.9,11.2,41.9,10.7,41.9,10.1z"/>
	<path class="st0" d="M52.6,13.8c0,0.5,0,1.1,0,1.6c-3.6,0-7.1,0-10.7,0c0-0.5,0-1,0-1.6C45.5,13.8,49,13.8,52.6,13.8z"/>
</g>
</svg>
