<?xml version="1.0" encoding="utf-8"?>
<!-- Generator: Adobe Illustrator 24.2.0, SVG Export Plug-In . SVG Version: 6.00 Build 0)  -->
<svg version="1.1" id="Layer_1" xmlns="http://www.w3.org/2000/svg" xmlns:xlink="http://www.w3.org/1999/xlink" x="0px" y="0px"
	 viewBox="0 0 60 60" style="enable-background:new 0 0 60 60;" xml:space="preserve">
<style type="text/css">
	.st0{fill:#8834EE;}
</style>
<g>
	<path class="st0" d="M41.9,60c-0.2-0.6-0.4-1.2-0.6-1.8c-0.1-0.4-0.3-0.6-0.7-0.8c-0.8-0.3-1.6-0.6-2.4-1c-0.4-0.2-0.6-0.2-1,0
		c-0.4,0.3-0.9,0.4-1.3,0.7c-0.3,0.2-0.5,0.1-0.7-0.1c-1-1-2-2-3-3c-0.3-0.3-0.4-0.5-0.1-0.8c0.8-1.1,1-2.2,0.1-3.4
		c-0.2-0.3-0.3-0.6-0.3-0.9c-0.1-0.8-0.6-1.1-1.3-1.2c-0.5-0.1-0.9-0.3-1.4-0.5c0-1.7,0-3.3,0-5c0-0.1,0.2-0.3,0.3-0.4
		c0.7-0.3,1.5-0.3,2-0.7c0.4-0.4,0.5-1.2,0.8-1.9c0-0.1,0.1-0.3,0.2-0.4c0.7-0.8,0.4-1.6-0.1-2.4c-0.6-0.9-0.5-0.9,0.3-1.7
		c0.9-0.9,1.7-1.7,2.6-2.6c0.2-0.2,0.5-0.4,0.8-0.1c1.2,0.9,2.3,1,3.5,0.1c0,0,0.1-0.1,0.2-0.1c1.3-0.2,1.9-1,2.1-2.2
		c0-0.2,0.1-0.4,0.2-0.7c1.7,0,3.5,0,5.3,0c0.2,0.6,0.4,1.3,0.7,1.9c0.1,0.2,0.3,0.4,0.5,0.5c0.9,0.4,1.7,0.8,2.6,1.1
		c0.2,0.1,0.5,0.1,0.8,0c0.5-0.2,1-0.5,1.5-0.7c0.2-0.1,0.5,0,0.6,0.1c1.1,1,2.2,2.1,3.2,3.2c0.1,0.1,0.1,0.4,0.1,0.6
		c-0.3,0.6-0.8,1.3-0.8,1.9c0,0.6,0.5,1.2,0.8,1.9c0.2,0.4,0.3,0.8,0.4,1.3c0.1,0.2,0.2,0.3,0.4,0.5l0.1-0.1c0-10.5,0-21,0-31.5
		c-18.7,0-37.4,0-56.1,0c0,12.9,0,25.7,0,38.7c1.2,0,2.5,0,3.8,0c0-0.5,0-1,0-1.6c0.8-0.3,1.6-0.5,2.4-0.8c-0.3-0.6-0.6-1.2-0.9-1.8
		c-0.2-0.3-0.2-0.5,0.1-0.8c1-1,2.1-2,3.1-3.1c0.3-0.3,0.5-0.3,0.8-0.1c0.6,0.3,1.1,0.6,1.8,0.9c0.2-0.7,0.4-1.3,0.7-2
		c0.1-0.2,0.3-0.4,0.5-0.4c1.6,0,3.2,0,4.9,0c0.3,0.8,0.5,1.5,0.8,2.4c0.7-0.3,1.3-0.6,1.9-0.9c0.2-0.1,0.5,0,0.6,0.1
		c1.1,1,2.1,2.1,3.2,3.1c0.2,0.2,0.2,0.4,0.1,0.7c-0.3,0.6-0.6,1.2-0.9,1.9c0.7,0.2,1.3,0.4,2,0.7c0.2,0.1,0.4,0.3,0.4,0.4
		c0,1.7,0,3.3,0,5c-0.8,0.3-1.5,0.5-2.4,0.8c0.3,0.6,0.6,1.2,0.9,1.8c0.2,0.3,0.2,0.5-0.1,0.7c-1.1,1-2.1,2.1-3.1,3.1
		c-0.2,0.2-0.4,0.3-0.7,0.1c-0.6-0.3-1.2-0.6-1.8-0.9c-0.3,0.8-0.5,1.6-0.8,2.3c-1.8,0-3.5,0-5.3,0c-0.3-0.8-0.5-1.5-0.8-2.3
		c-0.6,0.3-1.2,0.6-1.8,0.9c-0.3,0.1-0.5,0.2-0.7-0.1c-1-1.1-2.1-2.1-3.1-3.1c-0.3-0.3-0.2-0.4-0.1-0.7C8,54.2,8.3,53.7,8.6,53
		c-0.8-0.3-1.6-0.5-2.4-0.8c0-0.5,0-1.1,0-1.6c-1.9,0-3.8,0-5.8,0C0,33.5,0,16.8,0,0c20,0,40,0,60,0c0,15.7,0,31.4,0,47.1
		c-0.6,0.2-1.2,0.4-1.9,0.6c-0.4,0.1-0.5,0.3-0.6,0.6c-0.3,0.9-0.7,1.7-1,2.6c-0.1,0.2-0.1,0.5,0,0.8c0.2,0.5,0.5,1,0.7,1.5
		c0.1,0.2,0,0.5-0.1,0.6c-1,1.1-2.1,2.2-3.2,3.2c-0.1,0.1-0.4,0.2-0.5,0.1c-1.2-0.9-2.5-1-3.7-0.1c-0.1,0-0.1,0.1-0.2,0.1
		c-1.2,0.1-1.8,0.9-1.9,2.1C47.3,59.9,47,60,46.3,60C44.9,59.9,43.4,60,41.9,60z M1.9,7.7c18.7,0,37.4,0,56.1,0c0-1.9,0-3.8,0-5.7
		C39.3,2,20.6,2,1.9,2C1.9,3.8,1.9,5.7,1.9,7.7z M35,37.8c-0.1,0.2-0.2,0.3-0.3,0.4c-0.5,1-1.1,2-1.3,3c-0.3,1-0.7,1.7-1.8,1.8
		c-0.6,0.1-0.8,0.4-0.7,1c0.1,0.6-0.2,1.3,0.1,1.6c0.3,0.4,1,0.5,1.5,0.6c0.4,0.1,0.5,0.3,0.6,0.7c0.3,1,0.6,2.2,1.2,3.1
		c0.6,0.9,0.7,1.7,0,2.5c-0.3,0.4-0.3,0.8,0.2,1.2s0.8,1,1.3,1.1c0.4,0.1,1-0.4,1.5-0.7c0.3-0.2,0.6-0.1,0.9,0.1
		c1,0.5,1.9,1.1,3,1.3c1.1,0.3,1.7,0.7,1.9,1.8c0.1,0.6,0.4,0.8,1,0.7s1.3,0.2,1.6-0.1c0.4-0.3,0.5-1,0.7-1.6
		c0.1-0.3,0.3-0.5,0.6-0.6c0.9-0.3,2-0.5,2.8-1c1.1-0.7,2.1-0.9,3.2,0c0.1,0.1,0.4,0.1,0.5,0c0.5-0.5,1.2-1,1.5-1.6
		c0.1-0.4-0.4-1-0.7-1.5c-0.2-0.3-0.1-0.5,0-0.8c0.5-0.9,1-1.7,1.3-2.7c0.3-1.3,0.9-2.2,2.3-2.3c0.1,0,0.3-0.2,0.3-0.3
		c0-0.7,0.1-1.5-0.1-2.2c-0.1-0.3-0.9-0.4-1.4-0.6c-0.1,0-0.1,0-0.2-0.1c-0.2-0.2-0.4-0.3-0.5-0.6c-0.4-1.1-0.7-2.2-1.3-3.2
		c-0.6-0.9-0.6-1.7,0-2.5c0.3-0.5,0.3-0.8-0.2-1.2c-0.4-0.3-0.8-1-1.2-1.1c-0.5-0.1-1,0.4-1.5,0.6c-0.3,0.2-0.6,0.1-0.9,0
		c-1-0.5-2-1.1-3-1.4c-1.1-0.3-1.7-0.8-1.8-1.8c-0.1-0.5-0.3-0.7-0.9-0.7c-0.6,0.1-1.3-0.2-1.7,0.1c-0.4,0.3-0.4,1.1-0.7,1.6
		c-0.1,0.2-0.3,0.4-0.5,0.5c-1.4,0.3-2.8,0.9-4,1.7c-0.3,0.2-0.6,0.2-0.9,0c-0.5-0.3-1.1-0.7-1.5-0.6c-0.5,0.1-0.8,0.7-1.2,1.1
		c-0.5,0.4-0.5,0.7-0.2,1.2C34.6,36.9,34.8,37.3,35,37.8z M9.4,44c0.3,0.6,0.6,1.2,0.8,1.7c0.1,0.2,0.1,0.5,0,0.7
		c-0.1,0.7-0.6,1.1-1.2,1.2c-0.3,0-0.5,0.2-0.7,0.2c-0.5,0.1-0.6,0.3-0.6,0.8c0,0.6-0.2,1.4,0.1,1.8c0.3,0.4,1.1,0.5,1.7,0.7
		c0.6,0.2,1,1.2,0.8,1.8C10,53.5,9.7,54,9.5,54.5c0.6,0.7,1.2,1.2,1.7,1.8h0.1c0.5-0.2,1-0.5,1.5-0.7c0.3-0.1,0.6-0.1,0.9,0
		c0.6,0.1,0.9,0.5,1,1.1c0.1,0.3,0.2,0.6,0.3,1c0.1,0.3,0.2,0.5,0.6,0.4c0.5,0,1,0,1.6,0c0.3,0,0.5-0.1,0.6-0.4
		c0.1-0.5,0.3-1,0.5-1.4c0.2-0.5,1.2-0.9,1.7-0.7c0.6,0.3,1.2,0.8,1.7,0.7s1-0.8,1.4-1.3c0.1-0.1,0.2-0.2,0.3-0.3
		c-0.3-0.6-0.6-1.1-0.8-1.7c-0.1-0.2-0.2-0.4-0.1-0.6c0.2-0.6,0.4-1.2,1.3-1.3c0.3,0,0.5-0.2,0.8-0.3c0.5-0.1,0.6-0.3,0.6-0.8
		c0-0.6,0.2-1.4-0.1-1.8c-0.3-0.4-1.1-0.5-1.7-0.7s-1-1.2-0.8-1.8c0.3-0.6,0.6-1.1,0.8-1.6c-0.6-0.7-1.2-1.2-1.8-1.8
		c-0.5,0.3-1.1,0.6-1.7,0.8c-0.2,0.1-0.5,0.1-0.7,0c-0.7-0.1-1-0.5-1.2-1.2c-0.1-0.3-0.2-0.6-0.3-0.9c-0.1-0.3-0.2-0.5-0.6-0.4
		c-0.5,0-1,0-1.6,0c-0.3,0-0.5,0.1-0.6,0.4c-0.1,0.5-0.3,0.9-0.5,1.4c-0.1,0.2-0.3,0.4-0.5,0.6c-0.6,0.4-1.1,0.3-1.7-0.1
		c-0.3-0.2-0.6-0.3-0.9-0.4c-0.3-0.2-0.4-0.2-0.7,0.1C10.4,43.1,9.9,43.5,9.4,44z"/>
	<path class="st0" d="M8.3,30.7c-0.4-0.5-0.8-1-1.2-1.5c2.9-2.3,5.8-4.6,8.7-7c-2.9-2.3-5.8-4.6-8.7-7c0.4-0.5,0.8-1,1.2-1.5
		c3.5,2.8,7,5.6,10.6,8.5C15.4,25.1,11.9,27.9,8.3,30.7z"/>
	<path class="st0" d="M56.1,11.6c0,0.6,0,1.2,0,1.9c-7.1,0-14.1,0-21.2,0c0-0.6,0-1.2,0-1.9C41.9,11.6,49,11.6,56.1,11.6z"/>
	<path class="st0" d="M56.1,15.5c0,0.6,0,1.2,0,1.9c-7.1,0-14.1,0-21.2,0c0-0.6,0-1.2,0-1.9C41.9,15.5,49,15.5,56.1,15.5z"/>
	<path class="st0" d="M34.9,21.2c0-0.6,0-1.2,0-1.9c7.1,0,14.2,0,21.2,0c0,0.6,0,1.2,0,1.9C49,21.2,42,21.2,34.9,21.2z"/>
	<path class="st0" d="M34.9,25.1c0-0.6,0-1.2,0-1.9c7.1,0,14.1,0,21.2,0c0,0.6,0,1.2,0,1.9C49,25.1,42,25.1,34.9,25.1z"/>
	<path class="st0" d="M33.8,29c0,0.6,0,1.2,0,1.9c-7.1,0-14.1,0-21.2,0c0-0.6,0-1.2,0-1.9C19.7,29,26.7,29,33.8,29z"/>
	<path class="st0" d="M5.8,5.7c-0.6,0-1.2,0-1.9,0c0-0.6,0-1.2,0-1.9c0.6,0,1.2,0,1.9,0C5.8,4.5,5.8,5.1,5.8,5.7z"/>
	<path class="st0" d="M7.8,5.7c0-0.6,0-1.2,0-1.9c0.6,0,1.2,0,1.9,0c0,0.6,0,1.2,0,1.9C9,5.7,8.4,5.7,7.8,5.7z"/>
	<path class="st0" d="M13.5,5.7c-0.6,0-1.2,0-1.9,0c0-0.6,0-1.2,0-1.9c0.6,0,1.2,0,1.9,0C13.5,4.5,13.5,5.1,13.5,5.7z"/>
	<path class="st0" d="M54.2,44.5c0,5.3-4.4,9.6-9.7,9.6s-9.7-4.4-9.7-9.7s4.4-9.7,9.8-9.6C49.9,34.8,54.2,39.2,54.2,44.5z
		 M52.3,44.5c0-4.2-3.4-7.8-7.6-7.8c-4.3,0-7.8,3.4-7.9,7.6c0,4.3,3.4,7.8,7.6,7.9C48.7,52.3,52.2,48.8,52.3,44.5z"/>
	<path class="st0" d="M21.3,49.4c0,2.7-2.2,4.8-4.9,4.8s-4.8-2.2-4.8-4.9s2.2-4.8,4.9-4.8C19.1,44.5,21.3,46.7,21.3,49.4z
		 M19.3,49.3c0-1.6-1.3-2.9-2.9-2.9s-2.9,1.3-2.9,2.9c0,1.6,1.3,2.9,2.9,2.9S19.4,50.9,19.3,49.3z"/>
	<path class="st0" d="M44.5,48.4c-2.1,0-3.8-1.7-3.8-3.9c0-2.1,1.7-3.9,3.9-3.9c2.1,0,3.9,1.8,3.9,3.9
		C48.4,46.7,46.6,48.4,44.5,48.4z M44.5,46.4c1.1,0,1.9-0.9,1.9-1.9c0-1.1-0.9-1.9-2-1.9c-1,0-1.9,0.9-1.9,1.9
		C42.6,45.6,43.5,46.4,44.5,46.4z"/>
</g>
</svg>
