<?xml version="1.0" encoding="utf-8"?>
<!-- Generator: Adobe Illustrator 24.2.0, SVG Export Plug-In . SVG Version: 6.00 Build 0)  -->
<svg version="1.1" id="Layer_1" xmlns="http://www.w3.org/2000/svg" xmlns:xlink="http://www.w3.org/1999/xlink" x="0px" y="0px"
	 viewBox="0 0 60 60" style="enable-background:new 0 0 60 60;" xml:space="preserve">
<style type="text/css">
	.st0{fill:#8834EE;}
</style>
<g>
	<path class="st0" d="M30,0c16.6,0,30,13.5,30,30.1C59.9,46.6,46.4,60,29.9,60S-0.1,46.4,0,30C0.1,13.4,13.5,0,30,0z M30,57.6
		c15.2,0,27.6-12.3,27.7-27.5c0-15.3-12.3-27.7-27.6-27.8C14.9,2.3,2.4,14.6,2.4,29.8C2.3,45.2,14.6,57.6,30,57.6z"/>
	<path class="st0" d="M48,12.4c-0.6,0-1,0-1.4,0c-2.4-0.1-4.2,1.8-3.9,4.1c0.1,1.3,0.8,2.5,1.4,3.6c0.9,1.6,1.8,3.3,2.5,5
		c0.9,2.4,0.7,4.9,0,7.4c-1.4,4.6-2.8,9.2-4.1,13.8c0,0.1-0.1,0.2-0.2,0.3c-3.2-9.6-6.4-19.1-9.7-28.7c1-0.1,1.9-0.2,2.8-0.2
		c0.2,0,0.4,0,0.6-0.1c0.2-0.1,0.3-0.3,0.5-0.5c-0.2-0.1-0.4-0.4-0.6-0.4c-1.1,0-2.3,0.2-3.4,0.2c-2.8,0-5.7-0.1-8.5-0.1
		c-0.3,0-0.7-0.1-1,0c-0.2,0-0.4,0.3-0.6,0.4c0.2,0.2,0.3,0.4,0.5,0.5c0.8,0.1,1.5,0.2,2.3,0.2c0.4,0,0.6,0.2,0.8,0.6
		c1.2,3.4,2.4,6.7,3.6,10.1c0.1,0.3,0.1,0.6,0,0.9c-1.9,5.7-3.8,11.4-5.7,17c0,0.1-0.1,0.2-0.2,0.4c-3.2-9.7-6.5-19.2-9.7-28.8
		c1-0.1,1.9-0.1,2.8-0.2c0.4,0,1.1,0.2,1-0.5c0-0.8-0.7-0.4-1.1-0.4c-2.8,0.1-5.6,0.2-8.4,0.2c4.2-6.8,10.2-10.8,18.1-12
		c5.3-0.8,10.3,0.2,15,2.7C44,8.9,46.1,10.5,48,12.4z M42.2,42.7c0.1,0,0.1,0,0.2,0c1-3.5,2.2-7,3.1-10.5c0.4-1.4,0.5-3,0.5-4.4
		c0-2.3-1.1-4.3-2.3-6.2c-0.7-1.2-1.4-2.3-1.8-3.6c-0.9-2.7,0.2-5.3,2.8-6.5c0.1-0.1,0.2-0.1,0.4-0.2C39.3,6.7,32.7,5,25.4,6.4
		c-6.1,1.1-11,4.4-14.9,9.5c0.3,0,0.5,0.1,0.6,0.1c2-0.1,4-0.1,6-0.3c1.1-0.1,1.9,0.5,2,1.4c0.1,0.8-0.6,1.6-1.6,1.7
		c-0.6,0.1-1.2,0.2-1.9,0.2c2.7,8.1,5.4,16.1,8.2,24.2c0.1-0.3,0.2-0.4,0.2-0.4c1.5-4.5,3-8.9,4.5-13.4c0.1-0.3,0-0.8-0.1-1.1
		c-0.9-2.5-1.9-5-2.7-7.6c-0.4-1.2-0.9-2.1-2.4-1.9c-0.1,0-0.3,0-0.5-0.1c-1-0.2-1.6-0.8-1.5-1.8c0.1-0.9,0.9-1.4,1.9-1.4
		c4.2,0.4,8.3,0.4,12.5,0c1-0.1,1.7,0.5,1.9,1.3c0.1,0.9-0.4,1.7-1.4,1.8c-0.6,0.1-1.3,0.2-2,0.2C36.9,27,39.5,34.9,42.2,42.7z"/>
	<path class="st0" d="M41.4,52.4c0.4-1.3,0.8-2.5,1.3-3.7c2.4-7,4.8-13.9,7.3-20.9c1.4-3.8,1.6-7.7,0.8-11.7c0-0.2,0-0.4-0.1-0.6
		C59,27.3,55.7,45.1,41.4,52.4z M43.6,49.6c0.1,0,0.1,0.1,0.2,0.1c5-3.5,8.3-8.2,9.7-14.2c1.1-4.8,0.8-9.5-0.9-13.9
		c-0.5,2.2-0.9,4.5-1.7,6.7c-1.8,5.5-3.8,11-5.7,16.5C44.6,46.4,44.1,48,43.6,49.6z"/>
	<path class="st0" d="M20.2,53.1C7.2,47.9,0.8,31.7,7.6,18.6C11.8,30.1,16,41.6,20.2,53.1z M17.9,50.8c0.1,0,0.1-0.1,0.2-0.1
		c-3.5-9.6-7-19.3-10.6-29C6,24.8,5.2,31.1,6.9,36.6C8.7,42.8,12.4,47.5,17.9,50.8z"/>
	<path class="st0" d="M30.5,30.7c2.8,7.6,5.6,15.2,8.4,22.9c-5.4,2-10.9,2.2-16.5,0.4C25.1,46.2,27.7,38.5,30.5,30.7
		C30.4,30.7,30.4,30.7,30.5,30.7z M30.6,34.1c-0.1,0-0.1,0-0.2,0c-2.2,6.3-4.4,12.7-6.6,19.1c4.6,1.2,9.1,1.1,13.6-0.3
		C35.1,46.6,32.8,40.4,30.6,34.1z"/>
</g>
</svg>
