<?xml version="1.0" encoding="utf-8"?>
<!-- Generator: Adobe Illustrator 24.2.0, SVG Export Plug-In . SVG Version: 6.00 Build 0)  -->
<svg version="1.1" id="Layer_1" xmlns="http://www.w3.org/2000/svg" xmlns:xlink="http://www.w3.org/1999/xlink" x="0px" y="0px"
	 viewBox="0 0 60 60" style="enable-background:new 0 0 60 60;" xml:space="preserve">
<style type="text/css">
	.st0{fill:#8834EE;}
</style>
<g>
	<path class="st0" d="M31,58c0.3,0,0.6,0,0.9,0c8.8,0,17.6,0,26.5,0c0.2,0,0.3,0,0.5,0c0.6,0,1.1,0.4,1.1,1c0,0.5-0.4,1-1.1,1
		c-0.2,0-0.4,0-0.6,0c-9.3,0-18.7,0-28,0c-8.6,0-15.7-3.4-21.6-9.5C4.5,46,1.8,40.7,0.6,34.7c-0.9-4.4-0.7-8.7,0.3-13
		C1,21.4,1,21,1,20.7c0-2.7,0-5.4,0-8.3c0.9,0,1.8-0.1,2.7,0c1.1,0.1,1.7-0.3,2.4-1.1c4.8-6,11-9.5,18.5-10.8c2-0.3,4-0.5,6-0.5
		c9.2,0,18.5,0,27.8,0c0.2,0,0.4,0,0.6,0c0.6,0,1,0.5,1,1s-0.4,1-1,1c-0.2,0-0.5,0-0.7,0c-8.8,0-17.6,0-26.5,0c-0.2,0-0.5,0-0.8,0
		c0,5.2,0,10.4,0,15.6c1.2,0,2.4,0,3.6,0c1.2,0,1.5,0.3,1.5,1.5c0,2.8,0,5.6,0,8.4c0,1-0.3,1.4-1.4,1.4c-1.2,0-2.5,0-3.8,0
		C31,38.6,31,48.3,31,58z M25.8,12.4c0,0.3,0,0.6,0,0.8c0,2.3,0,4.6,0,6.9c0,5-3.9,8.8-8.9,8.9c-2.4,0-4.7,0-7.1,0
		c-2.9,0-5.2-1.2-7-3.5c-0.1-0.2-0.3-0.4-0.4-0.5c-1.2,9.4,1.3,17.6,7.8,24.5c5.1,5.4,11.3,8.2,18.8,8.6c0-5.3,0-10.5,0-15.7
		c-0.1,0-0.2-0.1-0.3-0.1c-4.4-0.8-7.4-4.1-7.9-8.6c-0.1-1.1,0.3-1.5,1.4-1.5c2,0,4.1,0,6.1,0c0.2,0,0.5,0,0.7,0c0-10.1,0-20,0-30
		C22.5,1.3,10,7.4,7.7,12.4C13.7,12.4,19.7,12.4,25.8,12.4z M23.8,14.5c-0.2,0-0.3,0-0.4,0c-5.6,0-11.3,0-16.9,0
		c-0.2,0-0.6,0.2-0.7,0.5c-0.9,1.9-1.8,3.8-2.6,5.7C3.1,21,3,21.5,3.1,21.8C3.6,24.7,6.2,27,9.2,27c2.8,0,5.6,0,8.4,0
		c2.7,0,5.2-1.9,5.9-4.5c0.2-0.9,0.3-2,0.3-2.9C23.9,17.8,23.8,16.2,23.8,14.5z M31,19.6c0,2.5,0,4.8,0,7.2c1.1,0,2.1,0,3.1,0
		c0-2.4,0-4.8,0-7.2C33.1,19.6,32.1,19.6,31,19.6z M25.8,36.2c0.7,0,1.4,0,2.1,0c0.6,0,1.1-0.4,1.1-1s-0.4-1.1-1.1-1.1
		c-1.4,0-2.7,0-4.1,0c-0.7,0-1.1,0.4-1.1,1.1c0,0.6,0.4,1,1.1,1.1C24.5,36.3,25.2,36.2,25.8,36.2z M3.1,14.5c0,0.5,0,0.9,0,1.3h0.1
		c0.2-0.4,0.5-0.9,0.7-1.4C3.6,14.5,3.3,14.5,3.1,14.5z"/>
	<path class="st0" d="M45.5,9.8c0,1.5,0,2.9,0,4.4c0,0.9-0.4,1.3-1.2,1.3c-1.6,0-3.1,0-4.7,0c-0.9,0-1.3-0.4-1.3-1.3
		c0-2.9,0-5.9,0-8.8c0-0.9,0.4-1.3,1.3-1.3c1.6,0,3.1,0,4.7,0c0.9,0,1.3,0.4,1.3,1.3C45.5,6.9,45.5,8.3,45.5,9.8z M43.4,13.4
		c0-2.5,0-4.8,0-7.2c-1.1,0-2.1,0-3.1,0c0,2.4,0,4.8,0,7.2C41.4,13.4,42.4,13.4,43.4,13.4z"/>
	<path class="st0" d="M57.9,23.3c0,1.5,0,2.9,0,4.4c0,0.9-0.4,1.3-1.3,1.3c-1.6,0-3.1,0-4.7,0c-0.9,0-1.3-0.4-1.3-1.3
		c0-2.9,0-5.9,0-8.8c0-0.9,0.4-1.3,1.3-1.3c1.6,0,3.1,0,4.7,0c0.9,0,1.3,0.4,1.3,1.3C57.9,20.3,57.9,21.8,57.9,23.3z M52.8,19.6
		c0,2.5,0,4.8,0,7.2c1.1,0,2.1,0,3.1,0c0-2.4,0-4.8,0-7.2C54.8,19.6,53.8,19.6,52.8,19.6z"/>
	<path class="st0" d="M39.3,36.7c0,1.5,0,2.9,0,4.4c0,0.9-0.4,1.3-1.3,1.3c-1.5,0-3.1,0-4.6,0c-0.9,0-1.3-0.4-1.3-1.3
		c0-2.9,0-5.8,0-8.7c0-0.9,0.4-1.3,1.3-1.3c1.5,0,3.1,0,4.6,0c0.9,0,1.3,0.4,1.3,1.3C39.3,33.8,39.3,35.3,39.3,36.7z M37.2,40.4
		c0-2.5,0-4.8,0-7.2c-1.1,0-2.1,0-3.1,0c0,2.4,0,4.8,0,7.2C35.2,40.4,36.2,40.4,37.2,40.4z"/>
	<path class="st0" d="M48.6,36.7c0,1.5,0,2.9,0,4.4c0,0.9-0.4,1.3-1.3,1.3c-1.6,0-3.1,0-4.7,0c-0.9,0-1.3-0.4-1.3-1.3
		c0-2.9,0-5.9,0-8.8c0-0.9,0.4-1.3,1.3-1.3c1.6,0,3.1,0,4.7,0c0.9,0,1.3,0.4,1.3,1.3C48.6,33.8,48.6,35.3,48.6,36.7z M46.6,40.4
		c0-2.5,0-4.8,0-7.2c-1.1,0-2.1,0-3.1,0c0,2.4,0,4.8,0,7.2C44.5,40.4,45.5,40.4,46.6,40.4z"/>
	<path class="st0" d="M45.5,50.3c0,1.4,0,2.9,0,4.3c0,0.9-0.4,1.3-1.3,1.3c-1.6,0-3.1,0-4.7,0c-0.9,0-1.3-0.4-1.3-1.3
		c0-2.9,0-5.9,0-8.8c0-0.9,0.4-1.3,1.3-1.3c1.6,0,3.1,0,4.7,0c0.9,0,1.3,0.4,1.3,1.3C45.5,47.3,45.5,48.8,45.5,50.3z M43.5,53.8
		c0-2.5,0-4.8,0-7.2c-1.1,0-2.1,0-3.1,0c0,2.4,0,4.8,0,7.2C41.4,53.8,42.4,53.8,43.5,53.8z"/>
	<path class="st0" d="M47.6,50.2c0-1.5,0-2.9,0-4.4c0-0.9,0.4-1.3,1.3-1.3c1.6,0,3.1,0,4.7,0c0.9,0,1.3,0.4,1.3,1.3
		c0,2.9,0,5.9,0,8.8c0,0.9-0.4,1.3-1.3,1.3c-1.6,0-3.1,0-4.7,0c-0.9,0-1.3-0.4-1.3-1.3C47.6,53.1,47.6,51.7,47.6,50.2z M49.7,46.6
		c0,2.4,0,4.8,0,7.3c1,0,2,0,3.1,0c0-2.4,0-4.8,0-7.3C51.7,46.6,50.7,46.6,49.7,46.6z"/>
	<path class="st0" d="M34.2,6.1c-0.4,0-0.7,0-1,0c-0.6,0-1-0.5-1-1s0.4-1,1-1s1.3,0,1.9,0c0.6,0,1.1,0.4,1.1,1.1c0,3.1,0,6.1,0,9.2
		c0,0.6-0.4,1.1-1,1.1s-1-0.5-1-1.1c0-2.4,0-4.9,0-7.3C34.2,6.8,34.2,6.5,34.2,6.1z"/>
	<path class="st0" d="M49.7,6.1c-0.4,0-0.7,0-1,0c-0.6,0-1.1-0.5-1-1c0-0.5,0.5-0.9,1-1c0.7,0,1.3,0,2,0c0.6,0,1,0.4,1,1
		c0,3.1,0,6.1,0,9.2c0,0.6-0.4,1.1-1,1.1s-1-0.5-1-1.2c0-2.4,0-4.9,0-7.3C49.7,6.7,49.7,6.5,49.7,6.1z"/>
	<path class="st0" d="M40.4,19.6c-0.4,0-0.7,0-1,0c-0.6,0-1.1-0.4-1.1-1c0-0.5,0.4-1,1.1-1c0.6,0,1.3,0,1.9,0c0.6,0,1.1,0.4,1.1,1.1
		c0,3.1,0,6.1,0,9.2c0,0.6-0.5,1.1-1,1.1c-0.6,0-1-0.5-1-1.1c0-2.4,0-4.9,0-7.3C40.4,20.2,40.4,20,40.4,19.6z"/>
	<path class="st0" d="M46.6,19.6c-0.4,0-0.7,0-1,0c-0.6,0-1-0.5-1-1s0.4-1,1.1-1c0.6,0,1.3,0,1.9,0s1.1,0.4,1.1,1.1
		c0,3.1,0,6.1,0,9.2c0,0.6-0.5,1.1-1,1.1c-0.6,0-1-0.5-1-1.1c0-2.4,0-4.9,0-7.3C46.6,20.2,46.6,20,46.6,19.6z"/>
	<path class="st0" d="M52.8,33.1c-0.4,0-0.7,0-1,0c-0.6,0-1.1-0.5-1-1c0-0.5,0.4-0.9,1-1c0.7,0,1.3,0,2,0c0.6,0,1,0.4,1,1
		c0,3.1,0,6.2,0,9.2c0,0.6-0.5,1.1-1,1c-0.6,0-1-0.5-1-1.2c0-2.5,0-4.9,0-7.4C52.8,33.6,52.8,33.4,52.8,33.1z"/>
	<path class="st0" d="M34.2,46.5c-0.4,0-0.7,0-1,0c-0.6,0-1.1-0.5-1-1c0-0.5,0.4-0.9,1-1c0.6,0,1.3,0,1.9,0c0.7,0,1.1,0.4,1.1,1.1
		c0,3,0,6,0,9c0,0.7-0.4,1.1-1,1.1s-1-0.5-1-1.2c0-2.5,0-4.9,0-7.4C34.2,47.1,34.2,46.8,34.2,46.5z"/>
	<path class="st0" d="M17.6,17.6c2,0,3.9,1.9,4.1,3.9c0,0.6-0.3,1.1-0.9,1.2c-0.5,0.1-1-0.4-1.1-1c-0.1-1.5-1-2.2-2.5-2
		c-0.9,0.1-1.6,0.8-1.7,1.7c0,0.1,0,0.3,0,0.5c-0.1,0.6-0.5,1-1,0.9c-0.5,0-0.9-0.5-0.9-1.1C13.5,19.6,15.6,17.6,17.6,17.6z"/>
</g>
</svg>
