<?xml version="1.0" encoding="utf-8"?>
<!-- Generator: Adobe Illustrator 24.2.0, SVG Export Plug-In . SVG Version: 6.00 Build 0)  -->
<svg version="1.1" id="Layer_1" xmlns="http://www.w3.org/2000/svg" xmlns:xlink="http://www.w3.org/1999/xlink" x="0px" y="0px"
	 viewBox="0 0 60 60" style="enable-background:new 0 0 60 60;" xml:space="preserve">
<style type="text/css">
	.st0{fill:#8834EE;}
</style>
<g>
	<path class="st0" d="M29.5,31.2c-1.8-0.1-3.5-0.3-5.4-0.4c0,0.5,0,0.8,0,1.1c0,1.3,0,2.7,0.1,4c0,0.7-0.4,1.1-1,1.1
		s-1.1-0.4-1.1-1.1c0-1.5,0-2.9,0-4.4c0-0.2,0-0.4,0-0.7c-1.6,0.2-3.2,0.4-4.8,0.6c0.3,0.7,0.5,1.3,0.7,1.9c0.2,0.7,0,1.3-0.6,1.5
		S16.3,34.7,16,34c-0.2-0.5-0.4-1.1-0.6-1.6c-0.1-0.4-0.3-0.5-0.7-0.4c-0.6,0.2-1.1,0.3-1.7,0.5c-0.6,0.2-1.2-0.1-1.3-0.6
		c-0.2-0.6,0.1-1.1,0.7-1.3c0.7-0.2,1.4-0.4,2-0.6c-0.4-2.1-0.8-4.2-1.2-6.4c-0.5,0-1.2,0-1.8,0s-1.3,0-1.9,0
		c-0.7,0-1.1-0.5-1.1-1.1s0.5-1,1.1-1c1,0,2.1,0,3.1,0c0.5,0,0.7-0.1,0.7-0.7c0.1-1.8,0.3-3.6,0.5-5.4c0-0.4,0-0.5-0.4-0.6
		c-0.2-0.1-0.5-0.2-0.7-0.3c-0.5-0.3-0.7-0.8-0.5-1.3s0.6-0.7,1.2-0.6c0.3,0.1,0.6,0.2,1,0.3c0.6-1.8,1.3-3.6,2.6-5l-0.1-0.1
		c-0.5,0.3-1.1,0.5-1.5,0.8c-1.3,0.9-2.5,1.9-3.7,2.9c-0.4,0.3-0.8,0.4-1.3,0.2c-0.4-0.2-0.6-0.6-0.5-1c0-0.2,0.1-0.5,0.3-0.6
		c2.6-2.5,5.6-4.6,9.3-5.2c2.1-0.4,4.1-0.1,6.1,0.2c2.4,0.4,4.6,1.1,6.7,2.3C33,7.8,33.7,8.1,33.9,9c0,0.1,0.1,0.2,0.2,0.3
		c1.9,1,3,2.7,4,4.6c0.9,1.6,1.5,3.4,2.2,5.1c0.2,0.6,0.3,1.2,1,1.5c0.4,0.2,0.6,0.7,0.4,1.1c-0.2,0.5-0.6,0.7-1.1,0.7
		c-0.7-0.1-1.2-0.5-1.5-1.1s-0.5-1.1-0.7-1.7c-0.7-2.5-1.8-4.8-3.5-6.8c-0.6-0.7-1.4-1.2-2.1-1.8c-0.3-0.3-0.6-0.7-0.9-1.1
		c-0.1-0.1-0.2-0.3-0.3-0.4c-2.4-1.4-5-2.1-7.7-2.4h-0.1c0.6,1.6,0.4,3.3,0.2,4.9c-0.1,0.7,0,1.4,0,2.1c0,0.1,0.3,0.4,0.4,0.4
		c1.5-0.2,3-0.4,4.6-0.7c-0.4-1.2-0.4-2.3-1.4-2.9c-0.2-0.1-0.3-0.4-0.5-0.6c-0.3-0.5-0.2-1.1,0.3-1.4c0.4-0.3,1-0.1,1.4,0.2
		c1.3,1,1.8,2.4,2.1,4c0.5-0.2,0.9-0.4,1.3-0.5c0.7-0.3,1.3-0.1,1.5,0.4c0.2,0.6,0,1.1-0.7,1.4c-0.2,0.1-0.3,0.2-0.5,0.2
		c-0.3,0.1-0.4,0.3-0.4,0.7c-0.1,0.8,0.2,1.5,0.4,2.2c0.2,0.7,0.1,1.4,0.2,2.2c0.1,0.6,0.2,1.2,0.3,1.9c0.9,0,1.7,0,2.6,0
		c0.8,0,1.3,0.3,1.3,1c0,0.6-0.4,1.1-1.2,1.1c-0.6,0-1.3,0-1.9,0c-0.4,0-0.5,0.1-0.5,0.5c0,1.9-0.2,3.8-0.7,5.6
		c0,0.2,0.1,0.4,0.2,0.6c0.1,0.2,0.3,0.2,0.5,0.4c0.5,0.4,0.6,1,0.3,1.4c-0.3,0.5-0.9,0.6-1.4,0.2c-0.1-0.1-0.2-0.1-0.3-0.2
		c-0.7,1.4-1.5,2.7-2.2,4.1c0.7-0.1,1.3-0.3,2-0.4c0,0,0,0,0.1,0c1.9-1.8,4.3-3.1,5.5-5.7c0.8-1.6,1.4-3.3,1.5-5.1
		c0.1-0.8,0.5-1.2,1.2-1.2c0.6,0.1,1,0.6,0.9,1.4c-0.4,3.9-2.1,7.2-4.9,9.8c-0.4,0.3-0.8,0.6-1.2,0.9c-0.5,0.4-1.1,0.7-1.4,1.4
		C33.1,37.9,32.6,38,32,38c-0.4,0-0.9,0-1.3,0.2c-2.6,1-5.2,1.8-8,1.6c-0.9-0.1-1.9-0.3-2.8-0.6c-1.7-0.4-3.4-0.9-5.1-1.4
		c-1.9-0.7-3.2-2.1-4.5-3.6c-0.4-0.4-0.8-0.9-1.2-1.2c-0.7-0.5-1-1.1-0.9-1.9c0.1-0.4-0.1-0.6-0.3-0.9c-0.3-0.4-0.4-0.9-0.6-1.3
		c-0.2-0.5-0.2-1.1-0.3-1.6c-1.4-3.9-1.7-7.7,0.2-11.6c0.2-0.4,0.4-0.8,0.7-1.1c0.4-0.5,0.9-0.7,1.4-0.4s0.7,0.9,0.3,1.5
		C8.8,17,8.2,18.5,8,20c-0.3,2.3,0.2,4.5,0.9,6.6c0.2,0.6,0.3,1.2,0.5,1.9c0,0.2,0.1,0.4,0.2,0.5c0.5,0.5,0.7,1.1,0.7,1.7
		c0,0.4,0.1,0.6,0.4,0.9c0.6,0.6,1.2,1.2,1.8,1.9c1.4,1.7,3.2,2.7,5.4,3.1c0.8,0.2,1.6,0.3,2.4,0.6c1.7,0.6,3.5,0.7,5.3,0.4
		c0.2,0,0.5-0.1,0.6-0.2C26.8,36.4,29.1,32.7,29.5,31.2z M21.9,16.6c-2-0.3-4-0.6-6-0.9c0,0.1-0.1,0.3-0.1,0.6
		c-0.1,1.4-0.3,2.8-0.4,4.2c-0.1,1,0.6,1.4,1.5,1.2c0.5-0.1,1-0.1,1.5-0.1c1,0,2,0.1,2.9,0.1c0.2,0,0.4,0,0.5,0
		C21.9,19.9,21.9,18.2,21.9,16.6z M24.1,28.6c2.1,0.2,4.1,0.4,6.1,0.6c0.5-1.4,0.9-4.4,0.6-5.6c-0.7-0.1-1.4-0.2-2-0.2
		c-0.1,0-0.3,0-0.3,0.1c-0.7,0.6-1.3,0.6-2,0.1c-0.1-0.1-0.3-0.1-0.5-0.1c-0.4,0-0.8,0.1-1.2,0.1c-0.4,0-0.6,0.2-0.6,0.6
		c0,1.1-0.1,2.2-0.1,3.3C24.1,27.9,24.1,28.3,24.1,28.6z M29.8,15.5c-0.1,0-0.2,0-0.3,0c-1.7,0.3-3.4,0.6-5,0.9
		c-0.2,0-0.4,0.3-0.4,0.5c-0.2,1.3-0.3,2.6,0,4c0.2,0.9,0.4,1.1,1.2,0.8c1.3-0.5,2.6,0.2,3.8-0.2c0.1,0,0.2,0,0.3,0
		c0.4,0,0.8,0.1,1.2,0.1c0-0.2,0.1-0.2,0-0.3c-0.1-1.1-0.2-2.1-0.3-3.2c0-0.1-0.1-0.3-0.1-0.4C29.7,17,29.5,16.4,29.8,15.5z
		 M15.4,23.8c0.1,1.8,0.5,3.5,1,5.3c0,0.1,0.3,0.3,0.4,0.3c0.3-0.1,0.7-0.2,1-0.3c0.7-0.5,1.2-0.6,2-0.2c0.2,0.1,0.4,0.2,0.6,0.1
		c0.4,0,0.9-0.1,1.3-0.3c0.2-0.1,0.4-0.3,0.4-0.4c0.1-1.4,0.1-2.8,0.1-4.1c0-0.1-0.2-0.4-0.3-0.4c-1.4-0.1-2.8-0.1-4.2-0.1
		C16.9,23.6,16.2,23.8,15.4,23.8z M22.7,6.9c-2.1-0.4-6.1,4-6.2,6.8c1.7,0.4,3.4,0.8,5.2,0.8c0-0.9,0-1.6,0-2.4
		c0.1-1.2,0.2-2.4,0.2-3.5C21.9,7.8,21.9,7.2,22.7,6.9z"/>
	<path class="st0" d="M13.1,41.9c1.6-1.1,2.9-0.8,4.3,0c1,0.6,2.3,0.8,3.5,1c3.1,0.4,6.1,0.3,9.1-0.7c1.4-0.4,2.5-1.1,3.6-2
		c1.2-1,2.4-2,3.6-2.9c1.5-1.1,3-2.2,3.7-4c0.2-0.5,0.8-0.7,1.3-0.5s0.8,0.8,0.6,1.3c-0.3,0.7-0.6,1.4-1.1,1.9c-0.9,1-2,1.9-3,2.8
		c-1.2,1-2.6,1.9-3.7,3c-2,1.8-4.5,2.7-7.1,3.1c-3.4,0.5-6.8,0.4-10.2-0.6c-0.6-0.2-1.3-0.6-1.9-0.9c-0.4-0.2-0.7-0.2-1.2,0
		c-1.5,0.9-2.8,0.5-3.5-1.1c-0.2-0.4-0.3-0.8-0.5-1.2c-0.1-0.4-0.4-0.5-0.8-0.5c-1.6,0-2.3-0.6-2.7-2.2c-0.2-0.6-0.5-1.2-0.9-1.7
		c-3-3.4-4.9-7.3-5.7-11.7c-0.6-3.4-0.2-6.7,1-9.8c0.8-2.1,1.9-4,2.8-6.1C4.6,8.4,4.8,7.5,5,6.6c0.1-0.6,0.5-1,1-1S6.9,6,7,6.5
		c0.1,1.6-0.5,2.9-1.2,4.3S4.4,13.6,3.7,15c-2.5,5.7-1.8,11.2,1.2,16.5c0.8,1.4,1.8,2.6,2.7,3.8C8.3,36.2,9,37,9.1,38.1
		c0,0.4,0.3,0.5,0.7,0.5c1.5,0,2.4,0.7,2.9,2.1C12.7,41.1,12.9,41.4,13.1,41.9z"/>
	<path class="st0" d="M46.8,20.6c-0.1,0.4-0.1,0.8-0.3,1.1c-0.7,1.2-0.9,2.5-1.1,3.8c-0.2,1.3-0.6,2.6-1,3.9c-0.2,0.7-0.8,1-1.4,0.8
		c-0.5-0.2-0.8-0.7-0.6-1.4c0.3-1.1,0.6-2.2,0.9-3.3c0.1-0.4,0.1-0.8,0.2-1.2c0.3-1,0.5-1.9,0.9-2.9c0.2-0.6,0.3-1-0.2-1.6
		s-0.9-1.3-1.1-2.1c-1.5-5.6-5-9.5-9.8-12.4c-0.4-0.2-0.8-0.4-1.1-0.5c-1.1-0.4-1.9-1-2.5-1.9c-0.1-0.2-0.3-0.4-0.4-0.3
		c-1.2,0.4-2.4,0-3.5-0.2c-2.9-0.4-5.8-0.7-8.6,0c-1,0.2-1.9,0.7-2.8,1.1c-0.8,0.4-1.5,0.8-2.4,0.6c-0.5-0.1-0.9-0.3-1.3-0.5
		c-0.5-0.3-0.5-0.9-0.2-1.3s0.8-0.6,1.3-0.3s1,0.2,1.4-0.1c2.7-1.7,5.8-2,8.9-1.8c1.9,0.1,3.7,0.4,5.6,0.6c0.4,0,0.8,0,1.2-0.1
		c1.1-0.3,2,0,2.6,1.1c0.3,0.6,0.7,0.9,1.3,1.2c6.2,2.9,10.5,7.5,12.5,14.2c0.2,0.7,0.7,1.2,1,1.8c0.3,0.6,0.6,1.2,0.9,1.7
		C46.9,20.5,46.9,20.6,46.8,20.6z"/>
	<path class="st0" d="M49.7,43.2c-0.7,0.3-1.3,0.2-1.9-0.4c-1-1-2.2-1.5-3.7-1.1c-1.9,0.5-2.7,2.4-2.1,4.5c0.4,1.2,1.1,2.2,2.1,3.1
		c0.9,0.8,1.8,1.5,2.6,2.4c0.4,0.5,0.7,1.1,1,1.6s0,1.1-0.5,1.3c-0.5,0.3-1.1,0.1-1.3-0.4c-0.5-1.2-1.4-1.9-2.3-2.7
		c-1.1-0.9-2.2-1.9-2.9-3.2c-0.6-1.1-0.9-2.2-1-3.3c0-0.4-0.2-0.8-0.4-1.1c-0.2-0.4-0.6-0.8-0.9-1.1c-0.4-0.5-0.3-1.1,0.1-1.5
		c0.5-0.4,1-0.3,1.4,0.2c0.1,0.1,0.3,0.3,0.4,0.4c0.6-0.6,1.3-1.2,1.9-1.8c-0.1-0.2-0.3-0.3-0.4-0.5c-0.3-0.4-0.3-0.9,0-1.3
		c0.4-0.4,0.8-0.4,1.3-0.2c0,0,0,0,0.1,0c0.8,1.2,2.1,1.3,3.3,1.7c0.9,0.3,1.8,0.9,2.5,1.5C50.1,42,50,42.2,49.7,43.2
		C49.6,43.2,49.7,43.2,49.7,43.2z"/>
	<path class="st0" d="M49.7,43.2L49.7,43.2c0.8-0.4,1.1-0.3,1.7,0.4c0.6,0.7,1.3,1.4,2.1,1.9c2.3,1.6,4.4,3.4,5.7,6
		c0.9,1.8,1,3.7,0.2,5.5c-1.2,2.8-4.4,3.8-7,2.1c-0.6-0.4-1.1-0.8-1.8-0.6c-0.4,0.1-0.8-0.2-0.9-0.7c-0.1-0.5,0-0.9,0.4-1.1
		c0.5-0.4,1.2-0.4,1.7-0.2c0.6,0.2,1.1,0.5,1.6,0.9c1.7,1,3.5,0.4,4.2-1.4c0.4-1.1,0.3-2.3-0.2-3.4c-1-2.1-2.6-3.7-4.5-5
		c-1.1-0.8-2.2-1.6-3.1-2.7C49.3,44.3,49.2,43.8,49.7,43.2z"/>
</g>
</svg>
